<?xml version="1.0" encoding="utf-8"?>
<!-- Generator: Adobe Illustrator 15.0.2, SVG Export Plug-In . SVG Version: 6.00 Build 0)  -->
<!DOCTYPE svg PUBLIC "-//W3C//DTD SVG 1.1//EN" "http://www.w3.org/Graphics/SVG/1.1/DTD/svg11.dtd">
<svg version="1.1" id="Layer_1" xmlns="http://www.w3.org/2000/svg" xmlns:xlink="http://www.w3.org/1999/xlink" x="0px" y="0px"
	 width="1024px" height="1024px" viewBox="0 -24 1024 1024" enable-background="new 0 -24 1024 1024" xml:space="preserve">
<g>
	<path fill="#FFFFFF" d="M-399.175,611.725h19.823c49.905,0,93.702-37.133,97.822-86.871c2.325-28.086-7.686-53.77-25.076-72.492
		c-13.417,34.019-46.515,58.147-85.305,58.147c-49.596,0-75.94-86.329-75.94-86.329V260.175c0-70.746-84.256-111.187-136.814-63.847
		c-15.005,13.52-24.489,31.788-24.489,51.63v269.385c0,52.127,42.257,94.382,94.385,94.382h94.049"/>
	<path fill="#6DC8E8" d="M-379.357,620.648h-19.817c-4.936,0-8.914-4-8.914-8.924s3.979-8.916,8.914-8.916h19.817
		c46.225,0,85.29-34.565,88.936-78.7c1.645-19.85-3.398-38.993-14.305-55.106c-17.766,31.043-50.593,50.427-87.179,50.427
		c-55.564,0-83.318-88.869-84.472-92.644c-0.262-0.852-0.395-1.723-0.395-2.609v-164c0-30.081-17.285-56.455-45.13-68.848
		c-26.768-11.915-55.481-7.564-76.792,11.632c-13.893,12.515-21.544,28.499-21.544,44.998v269.393
		c0,47.126,38.343,85.462,85.469,85.462h94.049c4.928,0,8.917,3.988,8.917,8.912s-3.988,8.924-8.917,8.924h-94.049
		c-56.961,0-103.3-46.339-103.3-103.298V247.958c0-21.622,9.738-42.316,27.429-58.258c26.312-23.7,63.088-29.328,95.988-14.673
		c34.374,15.3,55.725,47.928,55.725,85.148V422.82c7.346,23.089,32.47,78.771,67.021,78.771c34.206,0,64.431-20.613,76.996-52.508
		c1.121-2.854,3.629-4.925,6.643-5.49c2.995-0.58,6.101,0.451,8.187,2.686c20.132,21.684,29.875,49.843,27.44,79.312
		C-277.043,578.89-323.922,620.648-379.357,620.648L-379.357,620.648z M-379.357,620.648"/>
	<path fill="#FFE600" d="M-391.91,510.509c48.938,2.865,68.209-21.554,82.888-52.643l1.731-6.926L-467.85,424.18
		C-467.85,424.18-458.875,506.574-391.91,510.509L-391.91,510.509z M-391.91,510.509"/>
	<path fill="#EA3558" d="M-384.276,519.658c-2.638,0-5.348-0.08-8.148-0.241c-58.934-3.469-80.898-63.186-84.292-94.274
		c-0.306-2.77,0.718-5.528,2.743-7.449c2.034-1.914,4.84-2.77,7.59-2.312l160.559,26.757c2.451,0.416,4.632,1.826,5.99,3.916
		c1.369,2.074,1.811,4.634,1.195,7.056l-1.734,6.918c-0.141,0.573-0.33,1.119-0.586,1.643
		C-315.241,491.935-335.339,519.658-384.276,519.658L-384.276,519.658z M-391.383,501.6c40.261,2.392,58.014-14.784,72.364-43.565
		l-137.773-22.971C-451.752,456.38-436.116,498.976-391.383,501.6L-391.383,501.6z M-391.383,501.6"/>
	<path fill="#602F75" d="M-559.565,260.614c0,8.733-7.079,15.816-15.81,15.816c-8.739,0-15.817-7.083-15.817-15.816
		c0-8.732,7.079-15.815,15.817-15.815C-566.644,244.799-559.565,251.882-559.565,260.614L-559.565,260.614z M-559.565,260.614"/>
	<path fill="#EA3558" d="M-610.177,352.345h-122.096c-9.432,0-17.08-7.64-17.08-17.076c0-5.516,2.598-10.716,7.109-13.882
		c15.111-10.575,55.484-32.308,132.072-32.308v63.266H-610.177z M-610.177,352.345"/>
	<path fill="#FFE600" d="M-610.171,361.265h-122.105c-14.333,0-25.996-11.663-25.996-25.993c0-8.488,4.086-16.408,10.92-21.194
		c18.106-12.664,59.992-33.923,137.181-33.923c4.928,0,8.924,4,8.924,8.924v63.266
		C-601.253,357.277-605.243,361.265-610.171,361.265L-610.171,361.265z M-619.091,298.106
		c-69.174,1.612-105.378,21.737-118.039,30.584c-2.068,1.455-3.304,3.908-3.304,6.578c0,4.5,3.654,8.16,8.158,8.16h113.185V298.106z
		 M-619.091,298.106"/>
	<path fill="#602F75" d="M-494.238,682.853c-4.93,0-8.918-3.992-8.918-8.916v-62.212c0-4.924,3.988-8.912,8.918-8.912
		c4.934,0,8.92,3.988,8.92,8.912v62.212C-485.318,678.86-489.304,682.853-494.238,682.853L-494.238,682.853z M-494.238,682.853"/>
	<path fill="#602F75" d="M-440.715,682.853c-4.934,0-8.917-3.992-8.917-8.916v-62.212c0-4.924,3.983-8.912,8.917-8.912
		c4.93,0,8.924,3.988,8.924,8.912v62.212C-431.791,678.86-435.785,682.853-440.715,682.853L-440.715,682.853z M-440.715,682.853"/>
	<path fill="#EA3558" d="M-539.208,557.975c-9.85,0-17.84-7.984-17.84-17.833V361.739c0-9.852,7.99-17.844,17.84-17.844
		c9.849,0,17.84,7.992,17.84,17.844v178.403C-521.367,549.99-529.359,557.975-539.208,557.975L-539.208,557.975z M-539.208,557.975"
		/>
	<path fill="#FFE600" d="M-283.967,338.879c-8.647,17.16-22.538,114.686-22.538,114.686s76.037-66.208,84.686-83.368
		c8.647-17.157,1.75-38.076-15.415-46.732C-254.395,314.815-275.312,321.715-283.967,338.879L-283.967,338.879z M-283.967,338.879"
		/>
	<path fill="#EA3558" d="M-306.504,462.484c-1.454,0-2.928-0.354-4.257-1.077c-3.278-1.776-5.1-5.409-4.579-9.1
		c1.452-10.131,14.368-99.493,23.417-117.444c5.253-10.437,14.248-18.184,25.341-21.84c11.098-3.659,22.952-2.777,33.37,2.476
		c10.431,5.261,18.181,14.257,21.832,25.343c3.664,11.098,2.783,22.944-2.476,33.37c-8.977,17.821-73.88,74.833-86.796,86.088
		C-302.312,461.74-304.397,462.484-306.504,462.484L-306.504,462.484z M-252.871,328.648c-2.72,0-5.459,0.436-8.124,1.314
		c-6.569,2.174-11.889,6.766-15.01,12.939c-4.672,9.275-12.429,52.016-18.039,87.704c27.429-24.671,59.637-55.24,64.262-64.416
		c3.109-6.174,3.633-13.184,1.459-19.747c-2.156-6.575-6.748-11.896-12.922-15.006
		C-244.913,329.581-248.877,328.648-252.871,328.648L-252.871,328.648z M-252.871,328.648"/>
	<path fill="#FFE600" d="M-274.869,298.568c0,19.219-31.635,154.996-31.635,154.996s-37.961-135.777-37.961-154.996
		c0-19.216,15.583-34.791,34.802-34.791C-290.454,263.777-274.869,279.353-274.869,298.568L-274.869,298.568z M-274.869,298.568"/>
	<path fill="#EA3558" d="M-306.504,462.484c-4,0-7.506-2.654-8.591-6.517c-3.924-14.009-38.284-137.531-38.284-157.399
		c0-24.102,19.607-43.719,43.716-43.719c24.098,0,43.718,19.617,43.718,43.719c0,19.678-28.611,143.023-31.879,157.021
		c-0.923,3.977-4.415,6.804-8.489,6.895C-306.376,462.484-306.441,462.484-306.504,462.484L-306.504,462.484z M-309.664,272.694
		c-14.272,0-25.878,11.61-25.878,25.878c0,10.517,14.86,68.92,28.25,118.472c11.333-50.263,23.503-107.729,23.503-118.472
		C-283.788,284.304-295.399,272.694-309.664,272.694L-309.664,272.694z M-309.664,272.694"/>
</g>
<g>
	<path fill="#FFFFFF" d="M651.021,815.164h34.407c86.622,0,162.64-64.451,169.794-150.785
		c4.034-48.748-13.342-93.328-43.526-125.825C788.41,597.601,730.96,639.48,663.632,639.48c-86.085,0-131.81-149.842-131.81-149.842
		V204.972c0-122.795-146.248-192.99-237.474-110.821c-26.045,23.467-42.506,55.175-42.506,89.615v467.578
		c0,90.478,73.346,163.82,163.827,163.82h163.244"/>
	<path fill="#6DC8E8" d="M685.42,830.654h-34.398c-8.566,0-15.473-6.944-15.473-15.49s6.906-15.476,15.473-15.476h34.398
		c80.233,0,148.039-59.995,154.367-136.602c2.854-34.453-5.898-67.682-24.829-95.649c-30.836,53.883-87.813,87.527-151.315,87.527
		c-96.445,0-144.618-154.253-146.622-160.804c-0.454-1.478-0.685-2.99-0.685-4.529v-284.66c0-52.212-30.002-97.991-78.334-119.501
		c-46.462-20.681-96.3-13.128-133.289,20.191c-24.113,21.723-37.394,49.466-37.394,78.104v467.591
		c0,81.798,66.552,148.339,148.35,148.339h163.244c8.552,0,15.477,6.922,15.477,15.468s-6.925,15.49-15.477,15.49H415.669
		c-98.869,0-179.3-80.432-179.3-179.297V183.766c0-37.53,16.902-73.449,47.609-101.119c45.67-41.138,109.505-50.905,166.609-25.469
		c59.665,26.556,96.724,83.189,96.724,147.794v282.307c12.751,40.077,56.356,136.725,116.332,136.725
		c59.369,0,111.833-35.777,133.643-91.139c1.945-4.953,6.299-8.547,11.53-9.528c5.198-1.008,10.591,0.783,14.211,4.661
		c34.943,37.636,51.855,86.512,47.627,137.662C863.01,758.172,781.641,830.654,685.42,830.654L685.42,830.654z M685.42,830.654"/>
	<path fill="#FFE600" d="M663.632,639.48c84.944,4.975,118.392-37.409,143.871-91.372l3.004-12.021l-278.685-46.449
		C531.822,489.638,547.399,632.653,663.632,639.48L663.632,639.48z M663.632,639.48"/>
	<path fill="#EA3558" d="M676.883,655.362c-4.579,0-9.283-0.138-14.144-0.418c-102.294-6.021-140.417-109.674-146.308-163.635
		c-0.531-4.807,1.247-9.595,4.76-12.93c3.532-3.322,8.4-4.807,13.177-4.012l278.685,46.442c4.255,0.722,8.041,3.169,10.396,6.798
		c2.377,3.6,3.144,8.042,2.075,12.245l-3.011,12.009c-0.243,0.995-0.571,1.941-1.017,2.851
		C796.707,607.242,761.824,655.362,676.883,655.362L676.883,655.362z M664.547,624.018c69.881,4.151,100.695-25.661,125.603-75.617
		l-239.137-39.871C559.764,545.529,586.903,619.463,664.547,624.018L664.547,624.018z M664.547,624.018"/>
	<path fill="#602F75" d="M372.628,205.734c0,15.159-12.286,27.453-27.44,27.453c-15.169,0-27.455-12.294-27.455-27.453
		c0-15.157,12.286-27.451,27.455-27.451C360.342,178.283,372.628,190.577,372.628,205.734L372.628,205.734z M372.628,205.734"/>
	<path fill="#EA3558" d="M284.781,364.953H72.856c-16.371,0-29.646-13.261-29.646-29.639c0-9.575,4.509-18.6,12.34-24.096
		c26.228-18.355,96.305-56.077,229.24-56.077v109.812H284.781z M284.781,364.953"/>
	<path fill="#FFE600" d="M284.79,380.436H72.85c-24.878,0-45.123-20.243-45.123-45.116c0-14.733,7.092-28.479,18.954-36.788
		c31.427-21.981,104.13-58.882,238.108-58.882c8.554,0,15.49,6.942,15.49,15.49v109.812
		C300.27,373.514,293.344,380.436,284.79,380.436L284.79,380.436z M269.308,270.809c-120.067,2.797-182.908,37.729-204.882,53.086
		c-3.59,2.525-5.735,6.784-5.735,11.418c0,7.811,6.342,14.164,14.16,14.164h196.458V270.809z M269.308,270.809"/>
	<path fill="#602F75" d="M486.018,938.623c-8.557,0-15.479-6.93-15.479-15.476V815.164c0-8.546,6.922-15.468,15.479-15.468
		c8.564,0,15.484,6.922,15.484,15.468v107.983C501.502,931.693,494.582,938.623,486.018,938.623L486.018,938.623z M486.018,938.623"
		/>
	<path fill="#602F75" d="M578.919,938.623c-8.563,0-15.477-6.93-15.477-15.476V815.164c0-8.546,6.913-15.468,15.477-15.468
		c8.558,0,15.49,6.922,15.49,15.468v107.983C594.409,931.693,587.477,938.623,578.919,938.623L578.919,938.623z M578.919,938.623"/>
	<path fill="#EA3558" d="M407.964,721.869c-17.097,0-30.966-13.858-30.966-30.953V381.258c0-17.101,13.869-30.973,30.966-30.973
		c17.095,0,30.966,13.873,30.966,30.973v309.658C438.93,708.011,425.059,721.869,407.964,721.869L407.964,721.869z M407.964,721.869
		"/>
	<path fill="#FFE600" d="M850.991,341.58c-15.01,29.785-39.118,199.062-39.118,199.062s131.979-114.918,146.99-144.703
		c15.01-29.78,3.038-66.089-26.754-81.115C902.319,299.812,866.013,311.788,850.991,341.58L850.991,341.58z M850.991,341.58"/>
	<path fill="#EA3558" d="M811.873,556.124c-2.523,0-5.083-0.615-7.391-1.869c-5.688-3.084-8.852-9.389-7.947-15.793
		c2.521-17.585,24.938-172.693,40.646-203.852c9.117-18.116,24.729-31.562,43.985-37.908c19.263-6.352,39.839-4.82,57.921,4.297
		c18.104,9.131,31.557,24.746,37.895,43.989c6.359,19.262,4.83,39.824-4.298,57.92C957.104,433.84,844.449,532.799,822.03,552.333
		C819.15,554.834,815.529,556.124,811.873,556.124L811.873,556.124z M904.965,323.822c-4.721,0-9.477,0.756-14.1,2.281
		c-11.402,3.773-20.635,11.743-26.052,22.458c-8.109,16.1-21.573,90.285-31.312,152.23
		c47.611-42.822,103.514-95.882,111.542-111.809c5.396-10.716,6.305-22.883,2.531-34.275c-3.741-11.412-11.711-20.648-22.429-26.046
		C918.777,325.44,911.897,323.822,904.965,323.822L904.965,323.822z M904.965,323.822"/>
	<path fill="#FFE600" d="M866.781,271.612c0,33.359-54.908,269.03-54.908,269.03s-65.893-235.671-65.893-269.03
		c0-33.354,27.049-60.388,60.408-60.388C839.732,211.224,866.781,238.259,866.781,271.612L866.781,271.612z M866.781,271.612"/>
	<path fill="#EA3558" d="M811.873,556.124c-6.943,0-13.03-4.606-14.914-11.31c-6.81-24.315-66.451-238.716-66.451-273.202
		c0-41.834,34.033-75.884,75.881-75.884c41.826,0,75.882,34.05,75.882,75.884c0,34.155-49.66,248.249-55.332,272.545
		c-1.604,6.903-7.664,11.81-14.735,11.967C812.093,556.124,811.981,556.124,811.873,556.124L811.873,556.124z M806.389,226.701
		c-24.773,0-44.916,20.152-44.916,44.917c0,18.254,25.791,119.626,49.034,205.634c19.669-87.242,40.796-186.988,40.796-205.634
		C851.303,246.853,831.15,226.701,806.389,226.701L806.389,226.701z M806.389,226.701"/>
</g>
</svg>
